<svg xmlns="http://www.w3.org/2000/svg" xmlns:xlink="http://www.w3.org/1999/xlink" width="200" zoomAndPan="magnify" viewBox="0 0 150 149.999998" height="200" preserveAspectRatio="xMidYMid meet" version="1.0"><defs><clipPath id="id1"><path d="M 15 7.492188 L 60 7.492188 L 60 53 L 15 53 Z M 15 7.492188 " clip-rule="nonzero"/></clipPath><clipPath id="id2"><path d="M 44.792969 7.488281 C 29.566406 7.488281 30.519531 14.125 30.519531 14.125 L 30.535156 21.003906 L 45.0625 21.003906 L 45.0625 23.070312 L 24.765625 23.070312 C 24.765625 23.070312 15.023438 21.957031 15.023438 37.402344 C 15.023438 52.851562 23.527344 52.304688 23.527344 52.304688 L 28.601562 52.304688 L 28.601562 45.136719 C 28.601562 45.136719 28.328125 36.585938 36.96875 36.585938 L 51.378906 36.585938 C 51.378906 36.585938 59.472656 36.71875 59.472656 28.71875 L 59.472656 15.492188 C 59.472656 15.492188 60.703125 7.488281 44.792969 7.488281 Z M 36.78125 12.113281 C 38.226562 12.113281 39.394531 13.285156 39.394531 14.742188 C 39.394531 16.195312 38.226562 17.367188 36.78125 17.367188 C 35.335938 17.367188 34.167969 16.195312 34.167969 14.742188 C 34.167969 13.285156 35.335938 12.113281 36.78125 12.113281 Z M 36.78125 12.113281 " clip-rule="nonzero"/></clipPath><linearGradient x1="0.00416845" gradientTransform="matrix(44.473044, 0, 0, 44.818934, 15.02199, 7.4872)" y1="-0.00405721" x2="1.027758" gradientUnits="userSpaceOnUse" y2="1.01158" id="id3"><stop stop-opacity="1" stop-color="rgb(21.998596%, 49.398804%, 72.198486%)" offset="0"/><stop stop-opacity="1" stop-color="rgb(21.99707%, 49.383545%, 72.171021%)" offset="0.125"/><stop stop-opacity="1" stop-color="rgb(21.986389%, 49.269104%, 71.974182%)" offset="0.140625"/><stop stop-opacity="1" stop-color="rgb(21.966553%, 49.072266%, 71.633911%)" offset="0.15625"/><stop stop-opacity="1" stop-color="rgb(21.948242%, 48.875427%, 71.29364%)" offset="0.171875"/><stop stop-opacity="1" stop-color="rgb(21.928406%, 48.678589%, 70.953369%)" offset="0.1875"/><stop stop-opacity="1" stop-color="rgb(21.910095%, 48.48175%, 70.611572%)" offset="0.203125"/><stop stop-opacity="1" stop-color="rgb(21.890259%, 48.286438%, 70.271301%)" offset="0.21875"/><stop stop-opacity="1" stop-color="rgb(21.870422%, 48.0896%, 69.93103%)" offset="0.234375"/><stop stop-opacity="1" stop-color="rgb(21.852112%, 47.892761%, 69.590759%)" offset="0.25"/><stop stop-opacity="1" stop-color="rgb(21.832275%, 47.695923%, 69.250488%)" offset="0.265625"/><stop stop-opacity="1" stop-color="rgb(21.813965%, 47.499084%, 68.908691%)" offset="0.28125"/><stop stop-opacity="1" stop-color="rgb(21.794128%, 47.302246%, 68.56842%)" offset="0.296875"/><stop stop-opacity="1" stop-color="rgb(21.775818%, 47.105408%, 68.228149%)" offset="0.3125"/><stop stop-opacity="1" stop-color="rgb(21.755981%, 46.908569%, 67.887878%)" offset="0.328125"/><stop stop-opacity="1" stop-color="rgb(21.736145%, 46.711731%, 67.546082%)" offset="0.34375"/><stop stop-opacity="1" stop-color="rgb(21.717834%, 46.514893%, 67.205811%)" offset="0.359375"/><stop stop-opacity="1" stop-color="rgb(21.697998%, 46.31958%, 66.86554%)" offset="0.375"/><stop stop-opacity="1" stop-color="rgb(21.679688%, 46.122742%, 66.525269%)" offset="0.390625"/><stop stop-opacity="1" stop-color="rgb(21.659851%, 45.925903%, 66.184998%)" offset="0.40625"/><stop stop-opacity="1" stop-color="rgb(21.641541%, 45.729065%, 65.843201%)" offset="0.421875"/><stop stop-opacity="1" stop-color="rgb(21.621704%, 45.532227%, 65.50293%)" offset="0.4375"/><stop stop-opacity="1" stop-color="rgb(21.601868%, 45.335388%, 65.162659%)" offset="0.453125"/><stop stop-opacity="1" stop-color="rgb(21.583557%, 45.13855%, 64.822388%)" offset="0.46875"/><stop stop-opacity="1" stop-color="rgb(21.563721%, 44.941711%, 64.482117%)" offset="0.484375"/><stop stop-opacity="1" stop-color="rgb(21.54541%, 44.744873%, 64.14032%)" offset="0.494335"/><stop stop-opacity="1" stop-color="rgb(21.536255%, 44.647217%, 63.970947%)" offset="0.5"/><stop stop-opacity="1" stop-color="rgb(21.525574%, 44.548035%, 63.800049%)" offset="0.505665"/><stop stop-opacity="1" stop-color="rgb(21.516418%, 44.450378%, 63.630676%)" offset="0.515625"/><stop stop-opacity="1" stop-color="rgb(21.505737%, 44.352722%, 63.459778%)" offset="0.53125"/><stop stop-opacity="1" stop-color="rgb(21.487427%, 44.155884%, 63.119507%)" offset="0.546875"/><stop stop-opacity="1" stop-color="rgb(21.46759%, 43.959045%, 62.77771%)" offset="0.5625"/><stop stop-opacity="1" stop-color="rgb(21.44928%, 43.762207%, 62.437439%)" offset="0.578125"/><stop stop-opacity="1" stop-color="rgb(21.429443%, 43.565369%, 62.097168%)" offset="0.59375"/><stop stop-opacity="1" stop-color="rgb(21.411133%, 43.36853%, 61.756897%)" offset="0.609375"/><stop stop-opacity="1" stop-color="rgb(21.391296%, 43.171692%, 61.416626%)" offset="0.625"/><stop stop-opacity="1" stop-color="rgb(21.37146%, 42.974854%, 61.074829%)" offset="0.640625"/><stop stop-opacity="1" stop-color="rgb(21.353149%, 42.778015%, 60.734558%)" offset="0.65625"/><stop stop-opacity="1" stop-color="rgb(21.333313%, 42.582703%, 60.394287%)" offset="0.671875"/><stop stop-opacity="1" stop-color="rgb(21.315002%, 42.385864%, 60.054016%)" offset="0.6875"/><stop stop-opacity="1" stop-color="rgb(21.295166%, 42.189026%, 59.713745%)" offset="0.703125"/><stop stop-opacity="1" stop-color="rgb(21.276855%, 41.992188%, 59.371948%)" offset="0.71875"/><stop stop-opacity="1" stop-color="rgb(21.257019%, 41.795349%, 59.031677%)" offset="0.734375"/><stop stop-opacity="1" stop-color="rgb(21.237183%, 41.598511%, 58.691406%)" offset="0.75"/><stop stop-opacity="1" stop-color="rgb(21.218872%, 41.401672%, 58.351135%)" offset="0.765625"/><stop stop-opacity="1" stop-color="rgb(21.203613%, 41.25061%, 58.09021%)" offset="0.78125"/><stop stop-opacity="1" stop-color="rgb(21.199036%, 41.19873%, 57.998657%)" offset="0.8125"/><stop stop-opacity="1" stop-color="rgb(21.199036%, 41.19873%, 57.998657%)" offset="0.875"/><stop stop-opacity="1" stop-color="rgb(21.199036%, 41.19873%, 57.998657%)" offset="1"/></linearGradient><clipPath id="id4"><path d="M 30 22 L 75 22 L 75 67.492188 L 30 67.492188 Z M 30 22 " clip-rule="nonzero"/></clipPath><clipPath id="id5"><path d="M 45.226562 67.476562 C 60.449219 67.476562 59.5 60.835938 59.5 60.835938 L 59.480469 53.957031 L 44.953125 53.957031 L 44.953125 51.894531 L 65.253906 51.894531 C 65.253906 51.894531 74.996094 53.003906 74.996094 37.558594 C 74.996094 22.113281 66.492188 22.660156 66.492188 22.660156 L 61.417969 22.660156 L 61.417969 29.828125 C 61.417969 29.828125 61.691406 38.378906 53.050781 38.378906 L 38.636719 38.378906 C 38.636719 38.378906 30.542969 38.246094 30.542969 46.246094 L 30.542969 59.472656 C 30.542969 59.472656 29.3125 67.476562 45.226562 67.476562 Z M 53.234375 62.851562 C 51.792969 62.851562 50.621094 61.675781 50.621094 60.222656 C 50.621094 58.769531 51.792969 57.59375 53.234375 57.59375 C 54.683594 57.59375 55.847656 58.769531 55.847656 60.222656 C 55.847656 61.675781 54.683594 62.851562 53.234375 62.851562 Z M 53.234375 62.851562 " clip-rule="nonzero"/></clipPath><linearGradient x1="-0.0326454" gradientTransform="matrix(44.474395, 0, 0, 44.819163, 30.52123, 22.658068)" y1="-0.00636596" x2="1.013978" gradientUnits="userSpaceOnUse" y2="0.985247" id="id6"><stop stop-opacity="1" stop-color="rgb(100%, 87.799072%, 32.199097%)" offset="0"/><stop stop-opacity="1" stop-color="rgb(100%, 87.799072%, 32.199097%)" offset="0.125"/><stop stop-opacity="1" stop-color="rgb(100%, 87.799072%, 32.199097%)" offset="0.1875"/><stop stop-opacity="1" stop-color="rgb(100%, 87.759399%, 32.15332%)" offset="0.21875"/><stop stop-opacity="1" stop-color="rgb(100%, 87.590027%, 31.959534%)" offset="0.234375"/><stop stop-opacity="1" stop-color="rgb(100%, 87.332153%, 31.661987%)" offset="0.25"/><stop stop-opacity="1" stop-color="rgb(100%, 87.07428%, 31.365967%)" offset="0.265625"/><stop stop-opacity="1" stop-color="rgb(100%, 86.816406%, 31.06842%)" offset="0.28125"/><stop stop-opacity="1" stop-color="rgb(100%, 86.558533%, 30.7724%)" offset="0.296875"/><stop stop-opacity="1" stop-color="rgb(100%, 86.300659%, 30.474854%)" offset="0.3125"/><stop stop-opacity="1" stop-color="rgb(100%, 86.04126%, 30.177307%)" offset="0.328125"/><stop stop-opacity="1" stop-color="rgb(100%, 85.783386%, 29.881287%)" offset="0.34375"/><stop stop-opacity="1" stop-color="rgb(100%, 85.525513%, 29.58374%)" offset="0.359375"/><stop stop-opacity="1" stop-color="rgb(100%, 85.267639%, 29.28772%)" offset="0.375"/><stop stop-opacity="1" stop-color="rgb(100%, 85.009766%, 28.990173%)" offset="0.390625"/><stop stop-opacity="1" stop-color="rgb(100%, 84.751892%, 28.694153%)" offset="0.40625"/><stop stop-opacity="1" stop-color="rgb(100%, 84.494019%, 28.396606%)" offset="0.421875"/><stop stop-opacity="1" stop-color="rgb(100%, 84.236145%, 28.100586%)" offset="0.4375"/><stop stop-opacity="1" stop-color="rgb(100%, 83.978271%, 27.80304%)" offset="0.453125"/><stop stop-opacity="1" stop-color="rgb(100%, 83.720398%, 27.505493%)" offset="0.46875"/><stop stop-opacity="1" stop-color="rgb(100%, 83.460999%, 27.209473%)" offset="0.482837"/><stop stop-opacity="1" stop-color="rgb(100%, 83.332825%, 27.061462%)" offset="0.484375"/><stop stop-opacity="1" stop-color="rgb(100%, 83.203125%, 26.911926%)" offset="0.5"/><stop stop-opacity="1" stop-color="rgb(100%, 82.945251%, 26.615906%)" offset="0.515625"/><stop stop-opacity="1" stop-color="rgb(100%, 82.687378%, 26.318359%)" offset="0.517163"/><stop stop-opacity="1" stop-color="rgb(100%, 82.559204%, 26.170349%)" offset="0.53125"/><stop stop-opacity="1" stop-color="rgb(100%, 82.429504%, 26.022339%)" offset="0.546875"/><stop stop-opacity="1" stop-color="rgb(100%, 82.171631%, 25.724792%)" offset="0.5625"/><stop stop-opacity="1" stop-color="rgb(100%, 81.913757%, 25.428772%)" offset="0.578125"/><stop stop-opacity="1" stop-color="rgb(100%, 81.655884%, 25.131226%)" offset="0.59375"/><stop stop-opacity="1" stop-color="rgb(100%, 81.39801%, 24.835205%)" offset="0.609375"/><stop stop-opacity="1" stop-color="rgb(100%, 81.138611%, 24.537659%)" offset="0.625"/><stop stop-opacity="1" stop-color="rgb(100%, 80.880737%, 24.240112%)" offset="0.640625"/><stop stop-opacity="1" stop-color="rgb(100%, 80.622864%, 23.944092%)" offset="0.65625"/><stop stop-opacity="1" stop-color="rgb(100%, 80.36499%, 23.646545%)" offset="0.671875"/><stop stop-opacity="1" stop-color="rgb(100%, 80.107117%, 23.350525%)" offset="0.6875"/><stop stop-opacity="1" stop-color="rgb(100%, 79.849243%, 23.052979%)" offset="0.703125"/><stop stop-opacity="1" stop-color="rgb(100%, 79.59137%, 22.756958%)" offset="0.71875"/><stop stop-opacity="1" stop-color="rgb(100%, 79.333496%, 22.459412%)" offset="0.734375"/><stop stop-opacity="1" stop-color="rgb(100%, 79.075623%, 22.163391%)" offset="0.75"/><stop stop-opacity="1" stop-color="rgb(100%, 78.816223%, 21.865845%)" offset="0.765625"/><stop stop-opacity="1" stop-color="rgb(100%, 78.55835%, 21.568298%)" offset="0.78125"/><stop stop-opacity="1" stop-color="rgb(100%, 78.300476%, 21.272278%)" offset="0.796875"/><stop stop-opacity="1" stop-color="rgb(100%, 78.042603%, 20.974731%)" offset="0.8125"/><stop stop-opacity="1" stop-color="rgb(100%, 77.784729%, 20.678711%)" offset="0.828125"/><stop stop-opacity="1" stop-color="rgb(100%, 77.526855%, 20.381165%)" offset="0.84375"/><stop stop-opacity="1" stop-color="rgb(100%, 77.268982%, 20.085144%)" offset="0.859375"/><stop stop-opacity="1" stop-color="rgb(100%, 77.011108%, 19.787598%)" offset="0.875"/><stop stop-opacity="1" stop-color="rgb(100%, 76.753235%, 19.491577%)" offset="0.890625"/><stop stop-opacity="1" stop-color="rgb(100%, 76.560974%, 19.270325%)" offset="0.90625"/><stop stop-opacity="1" stop-color="rgb(100%, 76.499939%, 19.198608%)" offset="0.9375"/><stop stop-opacity="1" stop-color="rgb(100%, 76.499939%, 19.198608%)" offset="1"/></linearGradient><clipPath id="id7"><path d="M 105 21.101562 L 136 21.101562 L 136 81.101562 L 105 81.101562 Z M 105 21.101562 " clip-rule="nonzero"/></clipPath><clipPath id="id8"><path d="M 24.25 86.4375 L 84.25 86.4375 L 84.25 146.4375 L 24.25 146.4375 Z M 24.25 86.4375 " clip-rule="nonzero"/></clipPath><clipPath id="id9"><path d="M 24.25 86.4375 L 55 86.4375 L 55 146.4375 L 24.25 146.4375 Z M 24.25 86.4375 " clip-rule="nonzero"/></clipPath></defs><rect x="-15" width="180" fill="#ffffff" y="-15" height="179.999997" fill-opacity="1"/><rect x="-15" width="180" fill="#171810" y="-15" height="179.999997" fill-opacity="1"/><rect x="-15" width="180" fill="#ffffff" y="-15" height="179.999997" fill-opacity="1"/><rect x="-15" width="180" fill="#171810" y="-15" height="179.999997" fill-opacity="1"/><g clip-path="url(#id1)"><g clip-path="url(#id2)"><path fill="url(#id3)" d="M 15.023438 7.492188 L 15.023438 52.851562 L 60.703125 52.851562 L 60.703125 7.492188 Z M 15.023438 7.492188 " fill-rule="nonzero"/></g></g><g clip-path="url(#id4)"><g clip-path="url(#id5)"><path fill="url(#id6)" d="M 29.3125 22.113281 L 29.3125 67.476562 L 74.996094 67.476562 L 74.996094 22.113281 Z M 29.3125 22.113281 " fill-rule="nonzero"/></g></g><path fill="#4e7896" d="M 115.800781 52.921875 C 115.800781 52.921875 114.214844 53.882812 116.902344 54.160156 C 120.140625 54.570312 121.863281 54.503906 125.445312 53.816406 C 125.445312 53.816406 126.410156 54.433594 127.71875 54.914062 C 119.65625 58.351562 109.460938 54.707031 115.800781 52.921875 Z M 114.765625 48.457031 C 114.765625 48.457031 113.042969 49.761719 115.730469 50.035156 C 119.246094 50.378906 122 50.449219 126.753906 49.484375 C 126.753906 49.484375 127.375 50.171875 128.40625 50.515625 C 118.695312 53.402344 107.808594 50.792969 114.765625 48.457031 Z M 133.78125 56.289062 C 133.78125 56.289062 134.953125 57.25 132.472656 58.007812 C 127.855469 59.382812 113.113281 59.792969 108.980469 58.007812 C 107.535156 57.386719 110.289062 56.496094 111.183594 56.359375 C 112.082031 56.152344 112.5625 56.152344 112.5625 56.152344 C 110.976562 55.050781 102.023438 58.417969 108.015625 59.382812 C 124.480469 62.0625 138.050781 58.214844 133.78125 56.289062 Z M 116.558594 43.78125 C 116.558594 43.78125 109.050781 45.566406 113.871094 46.1875 C 115.9375 46.460938 120.003906 46.394531 123.792969 46.117188 C 126.890625 45.84375 129.992188 45.292969 129.992188 45.292969 C 129.992188 45.292969 128.890625 45.773438 128.132812 46.253906 C 120.484375 48.246094 105.8125 47.355469 110.015625 45.292969 C 113.597656 43.574219 116.558594 43.78125 116.558594 43.78125 Z M 129.992188 51.273438 C 137.707031 47.285156 134.125 43.4375 131.644531 43.917969 C 131.027344 44.054688 130.75 44.195312 130.75 44.195312 C 130.75 44.195312 130.957031 43.78125 131.4375 43.644531 C 136.332031 41.925781 140.1875 48.796875 129.855469 51.476562 C 129.855469 51.476562 129.921875 51.410156 129.992188 51.273438 Z M 117.316406 62.128906 C 124.757812 62.609375 136.121094 61.855469 136.398438 58.351562 C 136.398438 58.351562 135.847656 59.726562 130.269531 60.753906 C 123.929688 61.925781 116.078125 61.785156 111.460938 61.03125 C 111.460938 61.03125 112.425781 61.855469 117.316406 62.128906 Z M 117.316406 62.128906 " fill-opacity="1" fill-rule="nonzero"/><g clip-path="url(#id7)"><path fill="#f58219" d="M 125.308594 21.101562 C 125.308594 21.101562 129.578125 25.433594 121.242188 31.960938 C 114.558594 37.253906 119.726562 40.277344 121.242188 43.710938 C 117.316406 40.207031 114.492188 37.117188 116.421875 34.230469 C 119.246094 29.96875 127.03125 27.90625 125.308594 21.101562 Z M 123.105469 40.828125 C 125.101562 43.09375 122.554688 45.15625 122.554688 45.15625 C 122.554688 45.15625 127.652344 42.546875 125.308594 39.316406 C 123.171875 36.222656 121.519531 34.710938 130.476562 29.558594 C 130.476562 29.558594 116.351562 33.0625 123.105469 40.828125 Z M 118.003906 77.730469 L 118.003906 70.996094 C 118.003906 69.277344 117.039062 68.109375 114.628906 68.109375 C 113.25 68.109375 112.082031 68.453125 111.046875 68.863281 L 111.390625 70.101562 C 112.148438 69.824219 113.113281 69.550781 114.148438 69.550781 C 115.457031 69.550781 116.074219 70.101562 116.074219 71.199219 L 116.074219 72.09375 L 115.386719 72.09375 C 112.082031 72.09375 110.566406 73.332031 110.566406 75.324219 C 110.566406 76.972656 111.597656 77.933594 113.457031 77.933594 C 114.628906 77.933594 115.523438 77.382812 116.351562 76.699219 L 116.488281 77.726562 L 118.003906 77.726562 Z M 116.074219 75.53125 C 115.386719 76.148438 114.628906 76.492188 113.941406 76.492188 C 113.042969 76.492188 112.492188 75.941406 112.492188 74.980469 C 112.492188 74.019531 113.042969 73.332031 115.25 73.332031 L 116.074219 73.332031 Z M 124.480469 77.730469 L 122.070312 77.730469 L 119.175781 68.316406 L 121.242188 68.316406 L 123.035156 74.085938 L 123.449219 75.804688 C 124.34375 73.332031 125.03125 70.789062 125.308594 68.316406 L 127.375 68.316406 C 126.824219 71.40625 125.859375 74.773438 124.480469 77.730469 Z M 135.640625 77.730469 L 135.640625 70.996094 C 135.640625 69.277344 134.675781 68.109375 132.265625 68.109375 C 130.886719 68.109375 129.714844 68.453125 128.683594 68.863281 L 128.957031 70.101562 C 129.785156 69.824219 130.75 69.550781 131.785156 69.550781 C 133.09375 69.550781 133.710938 70.101562 133.710938 71.199219 L 133.710938 72.09375 L 133.023438 72.09375 C 129.714844 72.09375 128.199219 73.332031 128.199219 75.324219 C 128.199219 76.972656 129.164062 77.933594 131.027344 77.933594 C 132.265625 77.933594 133.160156 77.382812 133.988281 76.699219 L 134.125 77.726562 L 135.640625 77.726562 Z M 133.710938 75.53125 C 133.023438 76.148438 132.265625 76.492188 131.578125 76.492188 C 130.679688 76.492188 130.128906 75.941406 130.128906 74.980469 C 130.128906 74.019531 130.679688 73.332031 132.886719 73.332031 L 133.710938 73.332031 Z M 108.429688 79.308594 C 107.878906 80.136719 107.050781 80.753906 106.019531 81.097656 L 105.121094 80 C 105.8125 79.585938 106.5 78.96875 106.777344 78.417969 C 107.050781 77.9375 107.121094 77.25 107.121094 75.667969 L 107.121094 64.949219 L 109.1875 64.949219 L 109.1875 75.53125 C 109.1875 77.660156 108.980469 78.488281 108.429688 79.3125 Z M 108.429688 79.308594 " fill-opacity="1" fill-rule="nonzero"/></g><g clip-path="url(#id8)"><path fill="#ffc44d" d="M 26.480469 86.300781 C 25.882812 86.300781 25.308594 86.558594 24.914062 87.007812 C 24.515625 87.457031 24.332031 88.054688 24.40625 88.652344 L 29.984375 133.304688 C 30.074219 133.996094 30.5 134.601562 31.125 134.914062 L 53.453125 146.078125 C 54.042969 146.375 54.734375 146.375 55.324219 146.078125 L 77.648438 134.914062 C 78.277344 134.601562 78.703125 133.996094 78.789062 133.304688 L 84.371094 88.652344 C 84.445312 88.054688 84.261719 87.457031 83.863281 87.007812 C 83.46875 86.558594 82.894531 86.300781 82.296875 86.300781 Z M 26.480469 86.300781 " fill-opacity="1" fill-rule="nonzero"/></g><g clip-path="url(#id9)"><path fill="#e5b045" d="M 54.386719 86.300781 L 54.386719 146.300781 C 54.066406 146.300781 53.746094 146.226562 53.453125 146.078125 L 31.125 134.914062 C 30.5 134.601562 30.074219 133.996094 29.984375 133.304688 L 24.40625 88.652344 C 24.332031 88.054688 24.515625 87.457031 24.914062 87.007812 C 25.308594 86.558594 25.882812 86.300781 26.480469 86.300781 Z M 54.386719 86.300781 " fill-opacity="1" fill-rule="evenodd"/></g><path fill="#cfd8dc" d="M 50.203125 94.671875 C 51.359375 94.671875 52.296875 95.609375 52.296875 96.765625 L 52.296875 133.042969 C 52.296875 133.789062 51.898438 134.480469 51.253906 134.855469 C 50.609375 135.226562 49.8125 135.230469 49.164062 134.859375 L 39.398438 129.28125 C 38.394531 128.707031 38.042969 127.425781 38.617188 126.421875 C 39.191406 125.421875 40.46875 125.070312 41.472656 125.644531 L 48.109375 129.4375 L 48.109375 96.765625 C 48.109375 95.609375 49.046875 94.671875 50.203125 94.671875 Z M 50.203125 94.671875 " fill-opacity="1" fill-rule="evenodd"/><path fill="#eceff1" d="M 56.480469 96.765625 C 56.480469 95.609375 57.417969 94.671875 58.574219 94.671875 L 72.527344 94.671875 C 73.683594 94.671875 74.621094 95.609375 74.621094 96.765625 C 74.621094 97.921875 73.683594 98.859375 72.527344 98.859375 L 60.667969 98.859375 L 60.667969 112.292969 L 70.679688 110.070312 C 71.332031 109.925781 72.015625 110.101562 72.515625 110.542969 C 73.015625 110.984375 73.277344 111.636719 73.21875 112.304688 L 71.824219 127.652344 C 71.757812 128.375 71.320312 129.011719 70.675781 129.335938 L 59.511719 134.914062 C 58.476562 135.433594 57.21875 135.011719 56.703125 133.980469 C 56.1875 132.945312 56.605469 131.6875 57.640625 131.171875 L 67.757812 126.113281 L 68.789062 114.777344 L 59.027344 116.945312 C 58.410156 117.085938 57.761719 116.933594 57.265625 116.535156 C 56.769531 116.140625 56.480469 115.539062 56.480469 114.902344 Z M 56.480469 96.765625 " fill-opacity="1" fill-rule="evenodd"/></svg>