<svg xmlns="http://www.w3.org/2000/svg" xmlns:xlink="http://www.w3.org/1999/xlink" width="100" zoomAndPan="magnify" viewBox="0 0 75 74.999997" height="100" preserveAspectRatio="xMidYMid meet" version="1.0"><defs><g/><clipPath id="id1"><path d="M 24.460938 14 L 34 14 L 34 27 L 24.460938 27 Z M 24.460938 14 " clip-rule="nonzero"/></clipPath><clipPath id="id2"><path d="M 24.460938 13 L 34 13 L 34 28 L 24.460938 28 Z M 24.460938 13 " clip-rule="nonzero"/></clipPath><clipPath id="id3"><path d="M 41 14 L 50.710938 14 L 50.710938 27 L 41 27 Z M 41 14 " clip-rule="nonzero"/></clipPath><clipPath id="id4"><path d="M 41 13 L 50.710938 13 L 50.710938 28 L 41 28 Z M 41 13 " clip-rule="nonzero"/></clipPath><clipPath id="id5"><path d="M 33 10.273438 L 42 10.273438 L 42 30.523438 L 33 30.523438 Z M 33 10.273438 " clip-rule="nonzero"/></clipPath><clipPath id="id6"><path d="M 33 10.273438 L 43 10.273438 L 43 30.523438 L 33 30.523438 Z M 33 10.273438 " clip-rule="nonzero"/></clipPath></defs><rect x="-7.5" width="90" fill="#ffffff" y="-7.5" height="89.999996" fill-opacity="1"/><rect x="-7.5" width="90" fill="#171810" y="-7.5" height="89.999996" fill-opacity="1"/><rect x="-7.5" width="90" fill="#ffffff" y="-7.5" height="89.999996" fill-opacity="1"/><rect x="-7.5" width="90" fill="#171810" y="-7.5" height="89.999996" fill-opacity="1"/><g clip-path="url(#id1)"><path fill="#03fa6e" d="M 32.742188 26.785156 C 32.597656 26.785156 32.453125 26.734375 32.339844 26.644531 L 25 20.90625 C 24.84375 20.78125 24.753906 20.597656 24.753906 20.398438 C 24.753906 20.199219 24.84375 20.015625 25 19.890625 L 32.339844 14.152344 C 32.453125 14.0625 32.597656 14.011719 32.742188 14.011719 C 32.941406 14.011719 33.128906 14.101562 33.253906 14.261719 C 33.359375 14.394531 33.410156 14.566406 33.386719 14.734375 C 33.367188 14.90625 33.28125 15.058594 33.144531 15.167969 L 26.453125 20.398438 L 33.144531 25.628906 C 33.28125 25.738281 33.367188 25.890625 33.386719 26.0625 C 33.410156 26.234375 33.359375 26.402344 33.253906 26.539062 C 33.128906 26.695312 32.941406 26.785156 32.742188 26.785156 " fill-opacity="1" fill-rule="nonzero"/></g><g clip-path="url(#id2)"><path fill="#2a446b" d="M 32.742188 13.738281 C 32.535156 13.738281 32.332031 13.808594 32.167969 13.933594 L 24.828125 19.675781 C 24.605469 19.851562 24.476562 20.113281 24.476562 20.398438 C 24.476562 20.683594 24.605469 20.945312 24.828125 21.125 L 32.167969 26.863281 C 32.332031 26.988281 32.535156 27.058594 32.742188 27.058594 C 33.027344 27.058594 33.292969 26.929688 33.46875 26.707031 C 33.625 26.515625 33.691406 26.273438 33.664062 26.027344 C 33.632812 25.785156 33.511719 25.566406 33.316406 25.414062 L 26.902344 20.398438 L 33.316406 15.382812 C 33.511719 15.230469 33.632812 15.011719 33.664062 14.769531 C 33.691406 14.523438 33.625 14.28125 33.46875 14.089844 C 33.292969 13.867188 33.027344 13.738281 32.742188 13.738281 Z M 32.742188 14.289062 C 32.851562 14.289062 32.960938 14.335938 33.035156 14.429688 C 33.164062 14.589844 33.136719 14.824219 32.972656 14.953125 L 26.007812 20.398438 L 32.972656 25.847656 C 33.136719 25.972656 33.164062 26.207031 33.035156 26.367188 C 32.960938 26.460938 32.851562 26.507812 32.742188 26.507812 C 32.660156 26.507812 32.582031 26.484375 32.511719 26.429688 L 25.171875 20.691406 C 25.082031 20.621094 25.027344 20.511719 25.027344 20.398438 C 25.027344 20.285156 25.082031 20.175781 25.171875 20.105469 L 32.511719 14.367188 C 32.578125 14.3125 32.660156 14.289062 32.742188 14.289062 " fill-opacity="1" fill-rule="nonzero"/></g><g clip-path="url(#id3)"><path fill="#03fa6e" d="M 42.425781 26.785156 C 42.226562 26.785156 42.039062 26.695312 41.914062 26.539062 C 41.695312 26.257812 41.742188 25.851562 42.023438 25.628906 L 48.714844 20.398438 L 42.023438 15.167969 C 41.742188 14.945312 41.695312 14.539062 41.914062 14.261719 C 42.039062 14.101562 42.226562 14.011719 42.425781 14.011719 C 42.570312 14.011719 42.714844 14.0625 42.828125 14.152344 L 50.167969 19.890625 C 50.324219 20.015625 50.414062 20.199219 50.414062 20.398438 C 50.414062 20.597656 50.324219 20.78125 50.167969 20.90625 L 42.828125 26.644531 C 42.714844 26.734375 42.570312 26.785156 42.425781 26.785156 " fill-opacity="1" fill-rule="nonzero"/></g><g clip-path="url(#id4)"><path fill="#2a446b" d="M 42.425781 13.738281 C 42.140625 13.738281 41.875 13.867188 41.699219 14.089844 C 41.382812 14.488281 41.449219 15.070312 41.851562 15.382812 L 48.265625 20.398438 L 41.851562 25.414062 C 41.449219 25.726562 41.382812 26.308594 41.699219 26.707031 C 41.875 26.929688 42.140625 27.058594 42.425781 27.058594 C 42.632812 27.058594 42.835938 26.988281 43 26.863281 L 50.339844 21.125 C 50.5625 20.945312 50.691406 20.683594 50.691406 20.398438 C 50.691406 20.113281 50.5625 19.851562 50.339844 19.675781 L 43 13.933594 C 42.835938 13.808594 42.632812 13.738281 42.425781 13.738281 Z M 42.425781 14.289062 C 42.507812 14.289062 42.589844 14.3125 42.65625 14.367188 L 49.996094 20.105469 C 50.085938 20.175781 50.140625 20.285156 50.140625 20.398438 C 50.140625 20.511719 50.085938 20.621094 49.996094 20.691406 L 42.65625 26.429688 C 42.589844 26.484375 42.507812 26.507812 42.425781 26.507812 C 42.316406 26.507812 42.207031 26.460938 42.132812 26.367188 C 42.003906 26.207031 42.035156 25.972656 42.195312 25.847656 L 49.164062 20.398438 L 42.195312 14.953125 C 42.035156 14.824219 42.003906 14.589844 42.132812 14.429688 C 42.207031 14.335938 42.316406 14.289062 42.425781 14.289062 " fill-opacity="1" fill-rule="nonzero"/></g><g clip-path="url(#id5)"><path fill="#03fa6e" d="M 33.9375 30.246094 C 33.855469 30.246094 33.777344 30.230469 33.703125 30.203125 C 33.539062 30.140625 33.410156 30.019531 33.34375 29.863281 C 33.269531 29.703125 33.269531 29.527344 33.328125 29.367188 L 40.5 10.960938 C 40.59375 10.714844 40.839844 10.550781 41.105469 10.550781 C 41.183594 10.550781 41.265625 10.566406 41.339844 10.59375 C 41.671875 10.722656 41.839844 11.097656 41.710938 11.429688 L 34.542969 29.835938 C 34.445312 30.082031 34.203125 30.246094 33.9375 30.246094 " fill-opacity="1" fill-rule="nonzero"/></g><g clip-path="url(#id6)"><path fill="#2a446b" d="M 41.105469 10.273438 C 40.722656 10.273438 40.375 10.511719 40.242188 10.863281 L 33.070312 29.269531 C 32.984375 29.5 32.988281 29.746094 33.089844 29.972656 C 33.1875 30.199219 33.371094 30.371094 33.601562 30.460938 C 33.710938 30.5 33.820312 30.523438 33.9375 30.523438 C 34.316406 30.523438 34.664062 30.285156 34.800781 29.933594 L 41.96875 11.53125 C 42.152344 11.054688 41.914062 10.519531 41.4375 10.335938 C 41.332031 10.296875 41.21875 10.273438 41.105469 10.273438 Z M 41.105469 10.824219 C 41.148438 10.824219 41.195312 10.835938 41.238281 10.851562 C 41.433594 10.925781 41.527344 11.140625 41.453125 11.332031 L 34.285156 29.734375 C 34.226562 29.882812 34.085938 29.972656 33.9375 29.972656 C 33.890625 29.972656 33.847656 29.964844 33.800781 29.945312 C 33.609375 29.875 33.511719 29.65625 33.589844 29.46875 L 40.757812 11.0625 C 40.8125 10.914062 40.953125 10.824219 41.105469 10.824219 " fill-opacity="1" fill-rule="nonzero"/></g><g fill="#ffffff" fill-opacity="1"><g transform="translate(3.43383, 47.454614)"><g><path d="M 3.195312 -1.300781 L 1.515625 -6.859375 L 0.0859375 -6.859375 L 2.234375 0 L 4.160156 0 L 6.328125 -6.859375 L 4.90625 -6.859375 Z M 3.195312 -1.300781 "/></g></g></g><g fill="#ffffff" fill-opacity="1"><g transform="translate(9.521355, 47.454614)"><g><path d="M 1.125 -5.488281 C 1.496094 -5.488281 1.792969 -5.675781 1.792969 -6.082031 C 1.792969 -6.445312 1.523438 -6.664062 1.125 -6.664062 C 0.734375 -6.664062 0.457031 -6.445312 0.457031 -6.082031 C 0.457031 -5.675781 0.761719 -5.488281 1.125 -5.488281 Z M 1.800781 0 L 1.800781 -4.855469 L 0.457031 -4.855469 L 0.457031 0 Z M 1.800781 0 "/></g></g></g><g fill="#ffffff" fill-opacity="1"><g transform="translate(11.457425, 47.454614)"><g><path d="M 1.800781 0 L 1.800781 -3.765625 C 2.113281 -3.816406 2.417969 -3.847656 2.65625 -3.847656 C 3.28125 -3.847656 3.621094 -3.621094 3.621094 -3.011719 L 3.621094 0 L 4.957031 0 L 4.957031 -3.171875 C 4.957031 -4.625 3.914062 -5.050781 2.714844 -5.050781 C 2.222656 -5.050781 1.269531 -4.9375 0.457031 -4.796875 L 0.457031 0 Z M 1.800781 0 "/></g></g></g><g fill="#ffffff" fill-opacity="1"><g transform="translate(16.555702, 47.454614)"><g><path d="M 1.125 -5.488281 C 1.496094 -5.488281 1.792969 -5.675781 1.792969 -6.082031 C 1.792969 -6.445312 1.523438 -6.664062 1.125 -6.664062 C 0.734375 -6.664062 0.457031 -6.445312 0.457031 -6.082031 C 0.457031 -5.675781 0.761719 -5.488281 1.125 -5.488281 Z M 1.800781 0 L 1.800781 -4.855469 L 0.457031 -4.855469 L 0.457031 0 Z M 1.800781 0 "/></g></g></g><g fill="#ffffff" fill-opacity="1"><g transform="translate(18.491773, 47.454614)"><g><path d="M 2.976562 0.125 C 3.5625 0.125 4.195312 -0.015625 4.652344 -0.269531 L 4.128906 -1.269531 C 3.789062 -1.089844 3.441406 -0.988281 3.042969 -0.988281 C 2.183594 -0.988281 1.691406 -1.617188 1.691406 -2.453125 L 1.691406 -2.46875 C 1.691406 -3.316406 2.183594 -3.925781 3.042969 -3.925781 C 3.441406 -3.925781 3.796875 -3.816406 4.128906 -3.636719 L 4.660156 -4.636719 C 4.195312 -4.898438 3.5625 -5.050781 2.976562 -5.050781 C 1.378906 -5.050781 0.339844 -3.984375 0.339844 -2.46875 L 0.339844 -2.453125 C 0.339844 -0.929688 1.386719 0.125 2.976562 0.125 Z M 2.976562 0.125 "/></g></g></g><g fill="#ffffff" fill-opacity="1"><g transform="translate(23.032016, 47.454614)"><g><path d="M 1.125 -5.488281 C 1.496094 -5.488281 1.792969 -5.675781 1.792969 -6.082031 C 1.792969 -6.445312 1.523438 -6.664062 1.125 -6.664062 C 0.734375 -6.664062 0.457031 -6.445312 0.457031 -6.082031 C 0.457031 -5.675781 0.761719 -5.488281 1.125 -5.488281 Z M 1.800781 0 L 1.800781 -4.855469 L 0.457031 -4.855469 L 0.457031 0 Z M 1.800781 0 "/></g></g></g><g fill="#ffffff" fill-opacity="1"><g transform="translate(24.968086, 47.454614)"><g><path d="M 2.707031 0.136719 C 3.195312 0.136719 4.152344 0.0234375 4.957031 -0.117188 L 4.957031 -4.855469 L 3.621094 -4.855469 L 3.621094 -1.097656 C 3.308594 -1.039062 3.003906 -1.015625 2.765625 -1.015625 C 2.132812 -1.015625 1.800781 -1.234375 1.800781 -1.851562 L 1.800781 -4.855469 L 0.457031 -4.855469 L 0.457031 -1.742188 C 0.457031 -0.289062 1.503906 0.136719 2.707031 0.136719 Z M 2.707031 0.136719 "/></g></g></g><g fill="#ffffff" fill-opacity="1"><g transform="translate(30.066363, 47.454614)"><g><path d="M 2.476562 0.109375 C 3.925781 0.109375 4.644531 -0.414062 4.644531 -1.464844 C 4.644531 -2.234375 4.136719 -2.707031 3.042969 -3.011719 L 2.699219 -3.105469 C 2.113281 -3.273438 1.878906 -3.390625 1.878906 -3.636719 C 1.878906 -3.90625 2.164062 -4 2.65625 -4 C 3.070312 -4 3.652344 -3.90625 4.085938 -3.679688 L 4.472656 -4.617188 C 3.976562 -4.878906 3.230469 -5.039062 2.496094 -5.039062 C 1.234375 -5.039062 0.523438 -4.492188 0.523438 -3.59375 C 0.523438 -2.792969 0.980469 -2.316406 1.996094 -2.046875 L 2.453125 -1.929688 C 3.164062 -1.734375 3.324219 -1.625 3.324219 -1.363281 C 3.324219 -1.007812 2.933594 -0.929688 2.359375 -0.929688 C 1.871094 -0.929688 1.277344 -1.039062 0.710938 -1.285156 L 0.347656 -0.3125 C 1.039062 -0.0234375 1.71875 0.109375 2.476562 0.109375 Z M 2.476562 0.109375 "/></g></g></g><g fill="#ffffff" fill-opacity="1"><g transform="translate(34.724977, 47.454614)"><g/></g></g><g fill="#ffffff" fill-opacity="1"><g transform="translate(35.83245, 47.454614)"><g><path d="M 3.035156 0.136719 C 3.941406 0.136719 4.550781 0 5.242188 -0.339844 L 5.242188 -6.859375 L 3.90625 -6.859375 L 3.90625 -4.921875 C 3.613281 -4.988281 3.296875 -5.050781 2.984375 -5.050781 C 1.328125 -5.050781 0.347656 -3.957031 0.347656 -2.46875 L 0.347656 -2.453125 C 0.347656 -0.964844 1.378906 0.136719 3.035156 0.136719 Z M 3.035156 -1.066406 C 2.15625 -1.066406 1.691406 -1.675781 1.691406 -2.453125 L 1.691406 -2.46875 C 1.691406 -3.246094 2.15625 -3.847656 3.035156 -3.847656 C 3.332031 -3.847656 3.644531 -3.78125 3.90625 -3.722656 L 3.90625 -1.175781 C 3.644531 -1.109375 3.359375 -1.066406 3.035156 -1.066406 Z M 3.035156 -1.066406 "/></g></g></g><g fill="#ffffff" fill-opacity="1"><g transform="translate(41.218202, 47.454614)"><g><path d="M 5.371094 -2.265625 C 5.371094 -4 4.421875 -5.050781 2.867188 -5.050781 C 1.328125 -5.050781 0.339844 -3.984375 0.339844 -2.46875 L 0.339844 -2.460938 C 0.339844 -0.921875 1.394531 0.125 3.027344 0.125 C 3.976562 0.125 4.644531 -0.167969 5.132812 -0.472656 L 4.550781 -1.515625 C 4.195312 -1.261719 3.679688 -1.046875 3.085938 -1.046875 C 2.351562 -1.046875 1.871094 -1.523438 1.734375 -2.148438 L 5.371094 -2.148438 Z M 2.859375 -3.957031 C 3.511719 -3.957031 3.898438 -3.535156 4 -2.976562 L 1.742188 -2.976562 C 1.871094 -3.535156 2.273438 -3.957031 2.859375 -3.957031 Z M 2.859375 -3.957031 "/></g></g></g><g fill="#ffffff" fill-opacity="1"><g transform="translate(46.612408, 47.454614)"><g/></g></g><g fill="#ffffff" fill-opacity="1"><g transform="translate(47.719881, 47.454614)"><g><path d="M 1.785156 0 L 1.785156 -2.476562 L 3.570312 -2.476562 C 5.285156 -2.476562 5.996094 -3.5 5.996094 -4.710938 L 5.996094 -4.71875 C 5.996094 -5.828125 5.363281 -6.859375 3.570312 -6.859375 L 0.464844 -6.859375 L 0.464844 0 Z M 1.785156 -5.625 L 3.433594 -5.625 C 4.210938 -5.625 4.644531 -5.3125 4.644531 -4.625 L 4.644531 -4.617188 C 4.644531 -3.941406 4.203125 -3.644531 3.433594 -3.644531 L 1.785156 -3.644531 Z M 1.785156 -5.625 "/></g></g></g><g fill="#ffffff" fill-opacity="1"><g transform="translate(53.689034, 47.454614)"><g><path d="M 1.125 -5.488281 C 1.496094 -5.488281 1.792969 -5.675781 1.792969 -6.082031 C 1.792969 -6.445312 1.523438 -6.664062 1.125 -6.664062 C 0.734375 -6.664062 0.457031 -6.445312 0.457031 -6.082031 C 0.457031 -5.675781 0.761719 -5.488281 1.125 -5.488281 Z M 1.800781 0 L 1.800781 -4.855469 L 0.457031 -4.855469 L 0.457031 0 Z M 1.800781 0 "/></g></g></g><g fill="#ffffff" fill-opacity="1"><g transform="translate(55.625104, 47.454614)"><g><path d="M 1.800781 0 L 1.800781 -3.765625 C 2.113281 -3.816406 2.417969 -3.847656 2.65625 -3.847656 C 3.28125 -3.847656 3.621094 -3.621094 3.621094 -3.011719 L 3.621094 0 L 4.957031 0 L 4.957031 -3.171875 C 4.957031 -4.625 3.914062 -5.050781 2.714844 -5.050781 C 2.222656 -5.050781 1.269531 -4.9375 0.457031 -4.796875 L 0.457031 0 Z M 1.800781 0 "/></g></g></g><g fill="#ffffff" fill-opacity="1"><g transform="translate(60.723385, 47.454614)"><g><path d="M 2.707031 -5.050781 C 2.476562 -5.050781 2.15625 -5.023438 1.800781 -4.988281 L 1.800781 -6.859375 L 0.457031 -6.859375 L 0.457031 0 L 1.800781 0 L 1.800781 -3.765625 C 2.105469 -3.816406 2.425781 -3.847656 2.65625 -3.847656 C 3.28125 -3.847656 3.613281 -3.621094 3.613281 -3.011719 L 3.613281 0 L 4.957031 0 L 4.957031 -3.171875 C 4.957031 -4.625 3.90625 -5.050781 2.707031 -5.050781 Z M 2.707031 -5.050781 "/></g></g></g><g fill="#ffffff" fill-opacity="1"><g transform="translate(65.813205, 47.454614)"><g><path d="M 3.035156 0.136719 C 4.625 0.136719 5.734375 -0.964844 5.734375 -2.460938 L 5.734375 -2.46875 C 5.734375 -3.957031 4.625 -5.050781 3.035156 -5.050781 C 1.445312 -5.050781 0.347656 -3.957031 0.347656 -2.46875 L 0.347656 -2.460938 C 0.347656 -0.964844 1.453125 0.136719 3.035156 0.136719 Z M 3.035156 -1.066406 C 2.234375 -1.066406 1.691406 -1.675781 1.691406 -2.460938 L 1.691406 -2.476562 C 1.691406 -3.257812 2.222656 -3.847656 3.035156 -3.847656 C 3.855469 -3.847656 4.382812 -3.257812 4.382812 -2.476562 L 4.382812 -2.460938 C 4.382812 -1.675781 3.847656 -1.066406 3.035156 -1.066406 Z M 3.035156 -1.066406 "/></g></g></g><g fill="#03fa6e" fill-opacity="1"><g transform="translate(7.402124, 56.949635)"><g><path d="M 1.265625 0 L 1.265625 -4.816406 L 0.320312 -4.816406 L 0.320312 0 Z M 1.265625 0 "/></g></g></g><g fill="#03fa6e" fill-opacity="1"><g transform="translate(8.761816, 56.949635)"><g><path d="M 3.773438 -1.59375 C 3.773438 -2.808594 3.105469 -3.546875 2.015625 -3.546875 C 0.933594 -3.546875 0.238281 -2.796875 0.238281 -1.734375 L 0.238281 -1.730469 C 0.238281 -0.648438 0.980469 0.0898438 2.125 0.0898438 C 2.792969 0.0898438 3.261719 -0.117188 3.605469 -0.332031 L 3.195312 -1.0625 C 2.945312 -0.886719 2.582031 -0.738281 2.167969 -0.738281 C 1.652344 -0.738281 1.3125 -1.070312 1.21875 -1.507812 L 3.773438 -1.507812 Z M 2.007812 -2.78125 C 2.464844 -2.78125 2.738281 -2.484375 2.808594 -2.089844 L 1.222656 -2.089844 C 1.3125 -2.484375 1.597656 -2.78125 2.007812 -2.78125 Z M 2.007812 -2.78125 "/></g></g></g><g fill="#03fa6e" fill-opacity="1"><g transform="translate(12.55016, 56.949635)"><g><path d="M 1.914062 -3.527344 C 1.480469 -3.527344 0.972656 -3.433594 0.71875 -3.332031 L 0.511719 -2.496094 C 0.886719 -2.644531 1.371094 -2.734375 1.710938 -2.734375 C 2.234375 -2.734375 2.53125 -2.578125 2.53125 -2.148438 L 2.53125 -2.027344 C 2.25 -2.0625 2.007812 -2.074219 1.757812 -2.074219 C 0.824219 -2.074219 0.238281 -1.742188 0.238281 -1.015625 L 0.238281 -1.003906 C 0.238281 -0.203125 0.886719 0.09375 1.929688 0.09375 C 2.394531 0.09375 3.003906 0.03125 3.476562 -0.0703125 L 3.476562 -2.179688 C 3.476562 -3.191406 2.855469 -3.527344 1.914062 -3.527344 Z M 1.207031 -1.0625 C 1.207031 -1.367188 1.492188 -1.472656 1.964844 -1.472656 C 2.113281 -1.472656 2.339844 -1.457031 2.53125 -1.425781 L 2.53125 -0.6875 C 2.335938 -0.660156 2.125 -0.640625 1.964844 -0.640625 C 1.484375 -0.640625 1.207031 -0.761719 1.207031 -1.050781 Z M 1.207031 -1.0625 "/></g></g></g><g fill="#03fa6e" fill-opacity="1"><g transform="translate(16.106922, 56.949635)"><g><path d="M 1.265625 0 L 1.265625 -2.496094 C 1.34375 -2.511719 1.730469 -2.542969 1.871094 -2.542969 L 2.382812 -2.542969 L 2.382812 -3.410156 L 1.714844 -3.410156 C 1.40625 -3.410156 0.820312 -3.386719 0.320312 -3.277344 L 0.320312 0 Z M 1.265625 0 "/></g></g></g><g fill="#03fa6e" fill-opacity="1"><g transform="translate(18.487954, 56.949635)"><g><path d="M 1.265625 0 L 1.265625 -2.644531 C 1.484375 -2.679688 1.699219 -2.703125 1.863281 -2.703125 C 2.304688 -2.703125 2.542969 -2.542969 2.542969 -2.113281 L 2.542969 0 L 3.480469 0 L 3.480469 -2.226562 C 3.480469 -3.25 2.75 -3.546875 1.90625 -3.546875 C 1.5625 -3.546875 0.890625 -3.46875 0.320312 -3.367188 L 0.320312 0 Z M 1.265625 0 "/></g></g></g><g fill="#03fa6e" fill-opacity="1"><g transform="translate(22.068466, 56.949635)"><g><path d="M 0.789062 -3.855469 C 1.050781 -3.855469 1.257812 -3.984375 1.257812 -4.269531 C 1.257812 -4.527344 1.070312 -4.679688 0.789062 -4.679688 C 0.515625 -4.679688 0.320312 -4.527344 0.320312 -4.269531 C 0.320312 -3.984375 0.535156 -3.855469 0.789062 -3.855469 Z M 1.265625 0 L 1.265625 -3.410156 L 0.320312 -3.410156 L 0.320312 0 Z M 1.265625 0 "/></g></g></g><g fill="#03fa6e" fill-opacity="1"><g transform="translate(23.42816, 56.949635)"><g><path d="M 1.265625 0 L 1.265625 -2.644531 C 1.484375 -2.679688 1.699219 -2.703125 1.863281 -2.703125 C 2.304688 -2.703125 2.542969 -2.542969 2.542969 -2.113281 L 2.542969 0 L 3.480469 0 L 3.480469 -2.226562 C 3.480469 -3.25 2.75 -3.546875 1.90625 -3.546875 C 1.5625 -3.546875 0.890625 -3.46875 0.320312 -3.367188 L 0.320312 0 Z M 1.265625 0 "/></g></g></g><g fill="#03fa6e" fill-opacity="1"><g transform="translate(27.008672, 56.949635)"><g><path d="M 2.203125 -3.546875 C 0.996094 -3.546875 0.242188 -2.957031 0.242188 -1.878906 L 0.242188 -1.863281 C 0.242188 -0.777344 0.957031 -0.15625 2.175781 -0.15625 C 2.375 -0.15625 2.570312 -0.179688 2.757812 -0.214844 L 2.757812 -0.0703125 C 2.757812 0.355469 2.578125 0.539062 2.015625 0.539062 C 1.699219 0.539062 1.160156 0.457031 0.820312 0.316406 L 1.027344 1.1875 C 1.242188 1.28125 1.714844 1.371094 2.136719 1.371094 C 2.96875 1.371094 3.699219 1.046875 3.699219 0.0234375 L 3.699219 -3.207031 C 3.34375 -3.375 2.785156 -3.546875 2.203125 -3.546875 Z M 1.1875 -1.859375 C 1.1875 -2.449219 1.5625 -2.703125 2.203125 -2.703125 C 2.386719 -2.703125 2.570312 -2.679688 2.757812 -2.621094 L 2.757812 -1.0625 C 2.554688 -1.015625 2.371094 -0.996094 2.210938 -0.996094 C 1.554688 -0.996094 1.1875 -1.265625 1.1875 -1.851562 Z M 1.1875 -1.859375 "/></g></g></g><g fill="#03fa6e" fill-opacity="1"><g transform="translate(30.802953, 56.949635)"><g/></g></g><g fill="#03fa6e" fill-opacity="1"><g transform="translate(31.580721, 56.949635)"><g><path d="M 1.902344 -3.546875 C 1.742188 -3.546875 1.515625 -3.527344 1.265625 -3.503906 L 1.265625 -4.816406 L 0.320312 -4.816406 L 0.320312 0 L 1.265625 0 L 1.265625 -2.644531 C 1.480469 -2.679688 1.703125 -2.703125 1.863281 -2.703125 C 2.304688 -2.703125 2.535156 -2.542969 2.535156 -2.113281 L 2.535156 0 L 3.480469 0 L 3.480469 -2.226562 C 3.480469 -3.25 2.746094 -3.546875 1.902344 -3.546875 Z M 1.902344 -3.546875 "/></g></g></g><g fill="#03fa6e" fill-opacity="1"><g transform="translate(35.155297, 56.949635)"><g><path d="M 2.132812 0.09375 C 3.25 0.09375 4.027344 -0.675781 4.027344 -1.730469 L 4.027344 -1.734375 C 4.027344 -2.78125 3.25 -3.546875 2.132812 -3.546875 C 1.015625 -3.546875 0.242188 -2.78125 0.242188 -1.734375 L 0.242188 -1.730469 C 0.242188 -0.675781 1.023438 0.09375 2.132812 0.09375 Z M 2.132812 -0.75 C 1.566406 -0.75 1.1875 -1.175781 1.1875 -1.730469 L 1.1875 -1.742188 C 1.1875 -2.285156 1.5625 -2.703125 2.132812 -2.703125 C 2.707031 -2.703125 3.078125 -2.285156 3.078125 -1.742188 L 3.078125 -1.730469 C 3.078125 -1.175781 2.703125 -0.75 2.132812 -0.75 Z M 2.132812 -0.75 "/></g></g></g><g fill="#03fa6e" fill-opacity="1"><g transform="translate(39.193037, 56.949635)"><g><path d="M 3.96875 -1.691406 C 3.898438 -1.390625 3.832031 -1.09375 3.777344 -0.859375 L 3.585938 -1.699219 L 3.238281 -3.410156 L 2.148438 -3.410156 L 1.804688 -1.703125 L 1.609375 -0.789062 C 1.554688 -1.039062 1.507812 -1.28125 1.417969 -1.691406 L 1.082031 -3.410156 L 0.105469 -3.410156 L 0.957031 0 L 2.144531 0 L 2.507812 -1.699219 C 2.597656 -2.078125 2.648438 -2.335938 2.695312 -2.546875 C 2.761719 -2.261719 2.820312 -1.976562 2.886719 -1.699219 L 3.242188 0 L 4.449219 0 L 5.273438 -3.410156 L 4.300781 -3.410156 Z M 3.96875 -1.691406 "/></g></g></g><g fill="#03fa6e" fill-opacity="1"><g transform="translate(44.347124, 56.949635)"><g/></g></g><g fill="#03fa6e" fill-opacity="1"><g transform="translate(45.124891, 56.949635)"><g><path d="M 2.929688 0 L 2.929688 -0.875 L 2.269531 -0.875 C 1.863281 -0.875 1.679688 -1.027344 1.679688 -1.40625 L 1.679688 -2.542969 L 2.921875 -2.542969 L 2.921875 -3.410156 L 1.679688 -3.410156 L 1.679688 -4.457031 L 0.738281 -4.457031 L 0.738281 -3.410156 L 0.136719 -3.410156 L 0.136719 -2.542969 L 0.738281 -2.542969 L 0.738281 -1.109375 C 0.738281 -0.367188 1.035156 0 1.847656 0 Z M 2.929688 0 "/></g></g></g><g fill="#03fa6e" fill-opacity="1"><g transform="translate(48.075973, 56.949635)"><g><path d="M 2.132812 0.09375 C 3.25 0.09375 4.027344 -0.675781 4.027344 -1.730469 L 4.027344 -1.734375 C 4.027344 -2.78125 3.25 -3.546875 2.132812 -3.546875 C 1.015625 -3.546875 0.242188 -2.78125 0.242188 -1.734375 L 0.242188 -1.730469 C 0.242188 -0.675781 1.023438 0.09375 2.132812 0.09375 Z M 2.132812 -0.75 C 1.566406 -0.75 1.1875 -1.175781 1.1875 -1.730469 L 1.1875 -1.742188 C 1.1875 -2.285156 1.5625 -2.703125 2.132812 -2.703125 C 2.707031 -2.703125 3.078125 -2.285156 3.078125 -1.742188 L 3.078125 -1.730469 C 3.078125 -1.175781 2.703125 -0.75 2.132812 -0.75 Z M 2.132812 -0.75 "/></g></g></g><g fill="#03fa6e" fill-opacity="1"><g transform="translate(52.113711, 56.949635)"><g/></g></g><g fill="#03fa6e" fill-opacity="1"><g transform="translate(52.891478, 56.949635)"><g><path d="M 2.089844 0.0898438 C 2.5 0.0898438 2.945312 -0.0117188 3.265625 -0.191406 L 2.898438 -0.890625 C 2.660156 -0.765625 2.417969 -0.695312 2.136719 -0.695312 C 1.53125 -0.695312 1.1875 -1.132812 1.1875 -1.722656 L 1.1875 -1.734375 C 1.1875 -2.328125 1.53125 -2.757812 2.136719 -2.757812 C 2.417969 -2.757812 2.667969 -2.679688 2.898438 -2.554688 L 3.273438 -3.253906 C 2.945312 -3.4375 2.5 -3.546875 2.089844 -3.546875 C 0.96875 -3.546875 0.238281 -2.796875 0.238281 -1.734375 L 0.238281 -1.722656 C 0.238281 -0.652344 0.972656 0.0898438 2.089844 0.0898438 Z M 2.089844 0.0898438 "/></g></g></g><g fill="#03fa6e" fill-opacity="1"><g transform="translate(56.080082, 56.949635)"><g><path d="M 2.132812 0.09375 C 3.25 0.09375 4.027344 -0.675781 4.027344 -1.730469 L 4.027344 -1.734375 C 4.027344 -2.78125 3.25 -3.546875 2.132812 -3.546875 C 1.015625 -3.546875 0.242188 -2.78125 0.242188 -1.734375 L 0.242188 -1.730469 C 0.242188 -0.675781 1.023438 0.09375 2.132812 0.09375 Z M 2.132812 -0.75 C 1.566406 -0.75 1.1875 -1.175781 1.1875 -1.730469 L 1.1875 -1.742188 C 1.1875 -2.285156 1.5625 -2.703125 2.132812 -2.703125 C 2.707031 -2.703125 3.078125 -2.285156 3.078125 -1.742188 L 3.078125 -1.730469 C 3.078125 -1.175781 2.703125 -0.75 2.132812 -0.75 Z M 2.132812 -0.75 "/></g></g></g><g fill="#03fa6e" fill-opacity="1"><g transform="translate(60.11782, 56.949635)"><g><path d="M 2.132812 0.09375 C 2.769531 0.09375 3.195312 0 3.683594 -0.238281 L 3.683594 -4.816406 L 2.746094 -4.816406 L 2.746094 -3.457031 C 2.535156 -3.503906 2.316406 -3.546875 2.097656 -3.546875 C 0.933594 -3.546875 0.242188 -2.78125 0.242188 -1.734375 L 0.242188 -1.722656 C 0.242188 -0.675781 0.96875 0.09375 2.132812 0.09375 Z M 2.132812 -0.75 C 1.515625 -0.75 1.1875 -1.175781 1.1875 -1.722656 L 1.1875 -1.734375 C 1.1875 -2.28125 1.515625 -2.703125 2.132812 -2.703125 C 2.339844 -2.703125 2.558594 -2.65625 2.746094 -2.613281 L 2.746094 -0.824219 C 2.558594 -0.777344 2.359375 -0.75 2.132812 -0.75 Z M 2.132812 -0.75 "/></g></g></g><g fill="#03fa6e" fill-opacity="1"><g transform="translate(63.900225, 56.949635)"><g><path d="M 3.773438 -1.59375 C 3.773438 -2.808594 3.105469 -3.546875 2.015625 -3.546875 C 0.933594 -3.546875 0.238281 -2.796875 0.238281 -1.734375 L 0.238281 -1.730469 C 0.238281 -0.648438 0.980469 0.0898438 2.125 0.0898438 C 2.792969 0.0898438 3.261719 -0.117188 3.605469 -0.332031 L 3.195312 -1.0625 C 2.945312 -0.886719 2.582031 -0.738281 2.167969 -0.738281 C 1.652344 -0.738281 1.3125 -1.070312 1.21875 -1.507812 L 3.773438 -1.507812 Z M 2.007812 -2.78125 C 2.464844 -2.78125 2.738281 -2.484375 2.808594 -2.089844 L 1.222656 -2.089844 C 1.3125 -2.484375 1.597656 -2.78125 2.007812 -2.78125 Z M 2.007812 -2.78125 "/></g></g></g></svg>