<svg xmlns="http://www.w3.org/2000/svg" xmlns:xlink="http://www.w3.org/1999/xlink" width="500" zoomAndPan="magnify" viewBox="0 0 375 74.999997" height="100" preserveAspectRatio="xMidYMid meet" version="1.0"><defs><g/></defs><rect x="-37.5" width="450" fill="#ffffff" y="-7.5" height="89.999996" fill-opacity="1"/><rect x="-37.5" width="450" fill="#171810" y="-7.5" height="89.999996" fill-opacity="1"/><rect x="-37.5" width="450" fill="#ffffff" y="-7.5" height="89.999996" fill-opacity="1"/><rect x="-37.5" width="450" fill="#171810" y="-7.5" height="89.999996" fill-opacity="1"/><g fill="#ffffff" fill-opacity="1"><g transform="translate(14.33477, 53.619374)"><g><path d="M 11.082031 -4.515625 L 5.246094 -23.773438 L 0.292969 -23.773438 L 7.738281 0 L 14.421875 0 L 21.925781 -23.773438 L 17.003906 -23.773438 Z M 11.082031 -4.515625 "/></g></g></g><g fill="#ffffff" fill-opacity="1"><g transform="translate(35.438214, 53.619374)"><g><path d="M 3.898438 -19.023438 C 5.1875 -19.023438 6.214844 -19.667969 6.214844 -21.078125 C 6.214844 -22.335938 5.277344 -23.097656 3.898438 -23.097656 C 2.550781 -23.097656 1.582031 -22.335938 1.582031 -21.078125 C 1.582031 -19.667969 2.636719 -19.023438 3.898438 -19.023438 Z M 6.242188 0 L 6.242188 -16.828125 L 1.582031 -16.828125 L 1.582031 0 Z M 6.242188 0 "/></g></g></g><g fill="#ffffff" fill-opacity="1"><g transform="translate(42.150035, 53.619374)"><g><path d="M 6.242188 0 L 6.242188 -13.042969 C 7.328125 -13.21875 8.382812 -13.339844 9.203125 -13.339844 C 11.375 -13.339844 12.546875 -12.546875 12.546875 -10.4375 L 12.546875 0 L 17.179688 0 L 17.179688 -10.992188 C 17.179688 -16.035156 13.574219 -17.5 9.410156 -17.5 C 7.710938 -17.5 4.398438 -17.121094 1.582031 -16.621094 L 1.582031 0 Z M 6.242188 0 "/></g></g></g><g fill="#ffffff" fill-opacity="1"><g transform="translate(59.824111, 53.619374)"><g><path d="M 3.898438 -19.023438 C 5.1875 -19.023438 6.214844 -19.667969 6.214844 -21.078125 C 6.214844 -22.335938 5.277344 -23.097656 3.898438 -23.097656 C 2.550781 -23.097656 1.582031 -22.335938 1.582031 -21.078125 C 1.582031 -19.667969 2.636719 -19.023438 3.898438 -19.023438 Z M 6.242188 0 L 6.242188 -16.828125 L 1.582031 -16.828125 L 1.582031 0 Z M 6.242188 0 "/></g></g></g><g fill="#ffffff" fill-opacity="1"><g transform="translate(66.53593, 53.619374)"><g><path d="M 10.320312 0.441406 C 12.339844 0.441406 14.539062 -0.0585938 16.121094 -0.9375 L 14.304688 -4.398438 C 13.132812 -3.78125 11.929688 -3.429688 10.554688 -3.429688 C 7.5625 -3.429688 5.863281 -5.597656 5.863281 -8.5 L 5.863281 -8.558594 C 5.863281 -11.492188 7.5625 -13.601562 10.554688 -13.601562 C 11.929688 -13.601562 13.160156 -13.21875 14.304688 -12.605469 L 16.152344 -16.0625 C 14.539062 -16.972656 12.339844 -17.5 10.320312 -17.5 C 4.777344 -17.5 1.171875 -13.808594 1.171875 -8.558594 L 1.171875 -8.5 C 1.171875 -3.222656 4.808594 0.441406 10.320312 0.441406 Z M 10.320312 0.441406 "/></g></g></g><g fill="#ffffff" fill-opacity="1"><g transform="translate(82.275488, 53.619374)"><g><path d="M 3.898438 -19.023438 C 5.1875 -19.023438 6.214844 -19.667969 6.214844 -21.078125 C 6.214844 -22.335938 5.277344 -23.097656 3.898438 -23.097656 C 2.550781 -23.097656 1.582031 -22.335938 1.582031 -21.078125 C 1.582031 -19.667969 2.636719 -19.023438 3.898438 -19.023438 Z M 6.242188 0 L 6.242188 -16.828125 L 1.582031 -16.828125 L 1.582031 0 Z M 6.242188 0 "/></g></g></g><g fill="#ffffff" fill-opacity="1"><g transform="translate(88.987308, 53.619374)"><g><path d="M 9.378906 0.46875 C 11.082031 0.46875 14.394531 0.0898438 17.179688 -0.410156 L 17.179688 -16.828125 L 12.546875 -16.828125 L 12.546875 -3.8125 C 11.460938 -3.605469 10.40625 -3.519531 9.585938 -3.519531 C 7.386719 -3.519531 6.242188 -4.28125 6.242188 -6.417969 L 6.242188 -16.828125 L 1.582031 -16.828125 L 1.582031 -6.039062 C 1.582031 -0.996094 5.21875 0.46875 9.378906 0.46875 Z M 9.378906 0.46875 "/></g></g></g><g fill="#ffffff" fill-opacity="1"><g transform="translate(106.661381, 53.619374)"><g><path d="M 8.589844 0.382812 C 13.601562 0.382812 16.09375 -1.4375 16.09375 -5.070312 C 16.09375 -7.738281 14.335938 -9.378906 10.554688 -10.4375 L 9.351562 -10.757812 C 7.328125 -11.34375 6.507812 -11.753906 6.507812 -12.605469 C 6.507812 -13.542969 7.503906 -13.867188 9.203125 -13.867188 C 10.640625 -13.867188 12.664062 -13.542969 14.160156 -12.75 L 15.507812 -16.003906 C 13.777344 -16.914062 11.199219 -17.472656 8.648438 -17.472656 C 4.28125 -17.472656 1.816406 -15.566406 1.816406 -12.457031 C 1.816406 -9.671875 3.402344 -8.03125 6.917969 -7.09375 L 8.5 -6.683594 C 10.964844 -6.007812 11.519531 -5.628906 11.519531 -4.71875 C 11.519531 -3.488281 10.171875 -3.222656 8.179688 -3.222656 C 6.476562 -3.222656 4.425781 -3.605469 2.460938 -4.457031 L 1.203125 -1.085938 C 3.605469 -0.0898438 5.949219 0.382812 8.589844 0.382812 Z M 8.589844 0.382812 "/></g></g></g><g fill="#ffffff" fill-opacity="1"><g transform="translate(122.811295, 53.619374)"><g/></g></g><g fill="#ffffff" fill-opacity="1"><g transform="translate(126.650658, 53.619374)"><g><path d="M 10.523438 0.46875 C 13.660156 0.46875 15.769531 0 18.175781 -1.171875 L 18.175781 -23.773438 L 13.542969 -23.773438 L 13.542969 -17.0625 C 12.515625 -17.296875 11.433594 -17.5 10.347656 -17.5 C 4.601562 -17.5 1.203125 -13.71875 1.203125 -8.558594 L 1.203125 -8.5 C 1.203125 -3.34375 4.777344 0.46875 10.523438 0.46875 Z M 10.523438 -3.695312 C 7.476562 -3.695312 5.863281 -5.804688 5.863281 -8.5 L 5.863281 -8.558594 C 5.863281 -11.257812 7.476562 -13.339844 10.523438 -13.339844 C 11.550781 -13.339844 12.632812 -13.101562 13.542969 -12.898438 L 13.542969 -4.074219 C 12.632812 -3.839844 11.636719 -3.695312 10.523438 -3.695312 Z M 10.523438 -3.695312 "/></g></g></g><g fill="#ffffff" fill-opacity="1"><g transform="translate(145.321305, 53.619374)"><g><path d="M 18.613281 -7.855469 C 18.613281 -13.867188 15.332031 -17.5 9.9375 -17.5 C 4.601562 -17.5 1.171875 -13.808594 1.171875 -8.558594 L 1.171875 -8.53125 C 1.171875 -3.195312 4.835938 0.441406 10.496094 0.441406 C 13.777344 0.441406 16.09375 -0.585938 17.792969 -1.640625 L 15.769531 -5.246094 C 14.539062 -4.367188 12.75 -3.636719 10.699219 -3.636719 C 8.148438 -3.636719 6.476562 -5.277344 6.007812 -7.445312 L 18.613281 -7.445312 Z M 9.90625 -13.71875 C 12.164062 -13.71875 13.515625 -12.253906 13.867188 -10.320312 L 6.039062 -10.320312 C 6.476562 -12.253906 7.886719 -13.71875 9.90625 -13.71875 Z M 9.90625 -13.71875 "/></g></g></g><g fill="#ffffff" fill-opacity="1"><g transform="translate(164.021263, 53.619374)"><g/></g></g><g fill="#ffffff" fill-opacity="1"><g transform="translate(167.860627, 53.619374)"><g><path d="M 6.183594 0 L 6.183594 -8.589844 L 12.371094 -8.589844 C 18.320312 -8.589844 20.785156 -12.136719 20.785156 -16.328125 L 20.785156 -16.355469 C 20.785156 -20.199219 18.585938 -23.773438 12.371094 -23.773438 L 1.613281 -23.773438 L 1.613281 0 Z M 6.183594 -19.492188 L 11.902344 -19.492188 C 14.597656 -19.492188 16.09375 -18.410156 16.09375 -16.035156 L 16.09375 -16.003906 C 16.09375 -13.660156 14.570312 -12.632812 11.902344 -12.632812 L 6.183594 -12.632812 Z M 6.183594 -19.492188 "/></g></g></g><g fill="#ffffff" fill-opacity="1"><g transform="translate(188.553721, 53.619374)"><g><path d="M 3.898438 -19.023438 C 5.1875 -19.023438 6.214844 -19.667969 6.214844 -21.078125 C 6.214844 -22.335938 5.277344 -23.097656 3.898438 -23.097656 C 2.550781 -23.097656 1.582031 -22.335938 1.582031 -21.078125 C 1.582031 -19.667969 2.636719 -19.023438 3.898438 -19.023438 Z M 6.242188 0 L 6.242188 -16.828125 L 1.582031 -16.828125 L 1.582031 0 Z M 6.242188 0 "/></g></g></g><g fill="#ffffff" fill-opacity="1"><g transform="translate(195.26554, 53.619374)"><g><path d="M 6.242188 0 L 6.242188 -13.042969 C 7.328125 -13.21875 8.382812 -13.339844 9.203125 -13.339844 C 11.375 -13.339844 12.546875 -12.546875 12.546875 -10.4375 L 12.546875 0 L 17.179688 0 L 17.179688 -10.992188 C 17.179688 -16.035156 13.574219 -17.5 9.410156 -17.5 C 7.710938 -17.5 4.398438 -17.121094 1.582031 -16.621094 L 1.582031 0 Z M 6.242188 0 "/></g></g></g><g fill="#ffffff" fill-opacity="1"><g transform="translate(212.939613, 53.619374)"><g><path d="M 9.378906 -17.5 C 8.589844 -17.5 7.476562 -17.414062 6.242188 -17.296875 L 6.242188 -23.773438 L 1.582031 -23.773438 L 1.582031 0 L 6.242188 0 L 6.242188 -13.042969 C 7.300781 -13.21875 8.414062 -13.339844 9.203125 -13.339844 C 11.375 -13.339844 12.515625 -12.546875 12.515625 -10.4375 L 12.515625 0 L 17.179688 0 L 17.179688 -10.992188 C 17.179688 -16.035156 13.542969 -17.5 9.378906 -17.5 Z M 9.378906 -17.5 "/></g></g></g><g fill="#ffffff" fill-opacity="1"><g transform="translate(230.584388, 53.619374)"><g><path d="M 10.523438 0.46875 C 16.035156 0.46875 19.875 -3.34375 19.875 -8.53125 L 19.875 -8.558594 C 19.875 -13.71875 16.035156 -17.5 10.523438 -17.5 C 5.011719 -17.5 1.203125 -13.71875 1.203125 -8.558594 L 1.203125 -8.53125 C 1.203125 -3.34375 5.042969 0.46875 10.523438 0.46875 Z M 10.523438 -3.695312 C 7.738281 -3.695312 5.863281 -5.804688 5.863281 -8.53125 L 5.863281 -8.589844 C 5.863281 -11.285156 7.710938 -13.339844 10.523438 -13.339844 C 13.367188 -13.339844 15.183594 -11.285156 15.183594 -8.589844 L 15.183594 -8.53125 C 15.183594 -5.804688 13.339844 -3.695312 10.523438 -3.695312 Z M 10.523438 -3.695312 "/></g></g></g><g fill="#ffffff" fill-opacity="1"><g transform="translate(250.515393, 53.619374)"><g/></g></g><g fill="#ffffff" fill-opacity="1"><g transform="translate(254.354769, 53.619374)"><g><path d="M 9.847656 0.382812 C 15.566406 0.382812 19.113281 -2.199219 19.113281 -6.65625 L 19.113281 -6.714844 C 19.113281 -10.757812 16.972656 -12.371094 10.933594 -14.246094 C 7.738281 -15.273438 6.476562 -15.976562 6.476562 -17.617188 L 6.476562 -17.648438 C 6.476562 -19.023438 7.769531 -20.082031 10.496094 -20.082031 C 12.808594 -20.082031 15.15625 -19.40625 16.886719 -18.261719 L 18.644531 -22.101562 C 16.621094 -23.421875 13.542969 -24.183594 10.464844 -24.183594 C 5.070312 -24.183594 1.847656 -21.515625 1.847656 -17.558594 L 1.847656 -17.5 C 1.847656 -13.574219 3.636719 -11.726562 8.824219 -10.171875 C 13.074219 -8.851562 14.453125 -8.207031 14.453125 -6.625 L 14.453125 -6.59375 C 14.453125 -4.777344 12.546875 -3.753906 9.671875 -3.753906 C 7.09375 -3.753906 4.601562 -4.457031 2.84375 -5.628906 L 1.085938 -1.816406 C 3.195312 -0.410156 6.449219 0.382812 9.847656 0.382812 Z M 9.847656 0.382812 "/></g></g></g><g fill="#ffffff" fill-opacity="1"><g transform="translate(273.670263, 53.619374)"><g><path d="M 9.4375 -17.414062 C 7.300781 -17.414062 4.808594 -16.945312 3.546875 -16.445312 L 2.519531 -12.3125 C 4.367188 -13.042969 6.773438 -13.484375 8.441406 -13.484375 C 11.023438 -13.484375 12.488281 -12.722656 12.488281 -10.613281 L 12.488281 -9.996094 C 11.109375 -10.171875 9.90625 -10.230469 8.675781 -10.230469 C 4.074219 -10.230469 1.171875 -8.589844 1.171875 -5.011719 L 1.171875 -4.953125 C 1.171875 -0.996094 4.367188 0.46875 9.527344 0.46875 C 11.8125 0.46875 14.832031 0.148438 17.148438 -0.351562 L 17.148438 -10.757812 C 17.148438 -15.742188 14.101562 -17.414062 9.4375 -17.414062 Z M 5.949219 -5.246094 C 5.949219 -6.742188 7.359375 -7.269531 9.703125 -7.269531 C 10.4375 -7.269531 11.550781 -7.183594 12.488281 -7.035156 L 12.488281 -3.402344 C 11.519531 -3.253906 10.496094 -3.164062 9.703125 -3.164062 C 7.328125 -3.164062 5.949219 -3.753906 5.949219 -5.1875 Z M 5.949219 -5.246094 "/></g></g></g><g fill="#ffffff" fill-opacity="1"><g transform="translate(291.227093, 53.619374)"><g><path d="M 6.242188 0 L 6.242188 -13.042969 C 7.328125 -13.21875 8.382812 -13.339844 9.203125 -13.339844 C 11.375 -13.339844 12.546875 -12.546875 12.546875 -10.4375 L 12.546875 0 L 17.179688 0 L 17.179688 -10.992188 C 17.179688 -16.035156 13.574219 -17.5 9.410156 -17.5 C 7.710938 -17.5 4.398438 -17.121094 1.582031 -16.621094 L 1.582031 0 Z M 6.242188 0 "/></g></g></g><g fill="#ffffff" fill-opacity="1"><g transform="translate(308.901167, 53.619374)"><g><path d="M 14.453125 0 L 14.453125 -4.308594 L 11.199219 -4.308594 C 9.203125 -4.308594 8.296875 -5.070312 8.296875 -6.949219 L 8.296875 -12.546875 L 14.421875 -12.546875 L 14.421875 -16.828125 L 8.296875 -16.828125 L 8.296875 -21.984375 L 3.636719 -21.984375 L 3.636719 -16.828125 L 0.675781 -16.828125 L 0.675781 -12.546875 L 3.636719 -12.546875 L 3.636719 -5.480469 C 3.636719 -1.816406 5.101562 0 9.117188 0 Z M 14.453125 0 "/></g></g></g><g fill="#ffffff" fill-opacity="1"><g transform="translate(323.468288, 53.619374)"><g><path d="M 10.523438 0.46875 C 16.035156 0.46875 19.875 -3.34375 19.875 -8.53125 L 19.875 -8.558594 C 19.875 -13.71875 16.035156 -17.5 10.523438 -17.5 C 5.011719 -17.5 1.203125 -13.71875 1.203125 -8.558594 L 1.203125 -8.53125 C 1.203125 -3.34375 5.042969 0.46875 10.523438 0.46875 Z M 10.523438 -3.695312 C 7.738281 -3.695312 5.863281 -5.804688 5.863281 -8.53125 L 5.863281 -8.589844 C 5.863281 -11.285156 7.710938 -13.339844 10.523438 -13.339844 C 13.367188 -13.339844 15.183594 -11.285156 15.183594 -8.589844 L 15.183594 -8.53125 C 15.183594 -5.804688 13.339844 -3.695312 10.523438 -3.695312 Z M 10.523438 -3.695312 "/></g></g></g><g fill="#ffffff" fill-opacity="1"><g transform="translate(343.399293, 53.619374)"><g><path d="M 8.589844 0.382812 C 13.601562 0.382812 16.09375 -1.4375 16.09375 -5.070312 C 16.09375 -7.738281 14.335938 -9.378906 10.554688 -10.4375 L 9.351562 -10.757812 C 7.328125 -11.34375 6.507812 -11.753906 6.507812 -12.605469 C 6.507812 -13.542969 7.503906 -13.867188 9.203125 -13.867188 C 10.640625 -13.867188 12.664062 -13.542969 14.160156 -12.75 L 15.507812 -16.003906 C 13.777344 -16.914062 11.199219 -17.472656 8.648438 -17.472656 C 4.28125 -17.472656 1.816406 -15.566406 1.816406 -12.457031 C 1.816406 -9.671875 3.402344 -8.03125 6.917969 -7.09375 L 8.5 -6.683594 C 10.964844 -6.007812 11.519531 -5.628906 11.519531 -4.71875 C 11.519531 -3.488281 10.171875 -3.222656 8.179688 -3.222656 C 6.476562 -3.222656 4.425781 -3.605469 2.460938 -4.457031 L 1.203125 -1.085938 C 3.605469 -0.0898438 5.949219 0.382812 8.589844 0.382812 Z M 8.589844 0.382812 "/></g></g></g></svg>